<svg style="display:none;">

<symbol id="concept" data-name="concept" xmlns="http://www.w3.org/2000/svg" viewBox="0 0 700 700">
<defs><style>.cls-1{fill:#484848;}.cls-2{fill:none;stroke:#e8cf5e;stroke-miterlimit:10;stroke-width:14px;}</style></defs>
<title>Icons</title>
<path class="cls-1" d="M588,426.85A250.55,250.55,0,0,1,418.2,590.58L321.67,450.85Z"/><circle class="cls-2" cx="350" cy="350" r="250"/><path class="cls-1" d="M402.48,594.5a250.58,250.58,0,0,1-226.7-65.11L248.5,375.91Z"/><path class="cls-1" d="M164.38,517.57a250.56,250.56,0,0,1-56.8-228.92L276.86,275Z"/><path class="cls-1" d="M112,273.15A250.55,250.55,0,0,1,281.8,109.42l96.53,139.73Z"/><path class="cls-1" d="M297.7,105.46a250.56,250.56,0,0,1,226.64,65.27L451.52,324.16Z"/><path class="cls-1" d="M535.3,182.08a250.57,250.57,0,0,1,57.24,228.81l-169.26,14Z"/><circle class="cls-2" cx="350" cy="350" r="250"/>
</symbol>

<symbol id="vr" data-name="vr" xmlns="http://www.w3.org/2000/svg" viewBox="0 0 700 700">
<defs><style>.cls-1{fill:#484848;}.cls-2{fill:none;stroke:#e8cf5e;stroke-miterlimit:10;stroke-width:14px;}</style></defs>
<title>Icons</title>
<path class="cls-1" d="M196.45,363.25c18.83-15.87,36.28-24.68,67.5-24.68H422.16v-57.5H258.44c-29.44,0-56.61,0-108.83,45l-46.5,43.47a248.07,248.07,0,0,0,20,65.5Z"/><circle class="cls-2" cx="350" cy="350" r="250"/><path class="cls-1" d="M496.09,224.19H647.24c20.17,49.39,21.4,175.24,0,218.92H496.09C379.76,443.11,365.2,224.19,496.09,224.19Z"/><circle class="cls-1" cx="323" cy="423.94" r="63.93"/>
</symbol>

<symbol id="graphic" data-name="graphic" xmlns="http://www.w3.org/2000/svg" viewBox="0 0 700 700">
<defs><style>.cls-1{fill:#484848;}.cls-2,.cls-3{fill:none;stroke-miterlimit:10;}.cls-2{stroke:#e8cf5e;stroke-width:14px;}.cls-3{stroke:#484848;stroke-width:6.02px;}</style></defs>
<title>Icons</title>
<polygon class="cls-1" points="456.62 547.3 450.84 513.44 249.16 513.44 241.45 558.58 456.62 547.3"/><polygon class="cls-1" points="239.16 571.99 230.58 622.25 469.42 622.25 458.87 560.47 239.16 571.99"/><path class="cls-1" d="M425.63,502.83l59.71-183.11c-52.41-47.1-115.44-142-115.44-193H357.3l-.67,166.7a27.2,27.2,0,1,1-13.26,0V126.67H330.1c0,51.08-63,146-115.44,193.05l59.71,183.11Z"/><circle class="cls-2" cx="350" cy="350.61" r="250"/><rect class="cls-1" x="340" y="90.61" width="20" height="20"/><line class="cls-3" x1="211.93" y1="100.61" x2="488.07" y2="100.61"/><circle class="cls-1" cx="488.07" cy="100.61" r="10"/><circle class="cls-1" cx="211.93" cy="100.61" r="10"/>
</symbol>

</svg> 
